{
  "asset": {
    "generator": "Khronos glTF Blender I/O v4.2.57",
    "version": "2.0"
  },
  "scene": 0,
  "scenes": [
    {
      "name": "Scene",
      "nodes": [
        0,
        1,
        2
      ]
    }
  ],
  "nodes": [
    {
      "mesh": 0,
      "name": "searsia_burchellii_large_LOD0",
      "translation": [
        2,
        0,
        0
      ]
    },
    {
      "mesh": 1,
      "name": "searsia_burchellii_medium_LOD0",
      "translation": [
        -1,
        0,
        0
      ]
    },
    {
      "mesh": 2,
      "name": "searsia_burchellii_small_LOD0",
      "translation": [
        -3,
        0,
        0
      ]
    }
  ],
  "materials": [
    {
      "alphaMode": "BLEND",
      "doubleSided": true,
      "name": "searsia_burchellii_leaves",
      "normalTexture": {
        "index": 0
      },
      "pbrMetallicRoughness": {
        "baseColorTexture": {
          "index": 1
        },
        "metallicFactor": 0,
        "metallicRoughnessTexture": {
          "index": 2
        }
      }
    },
    {
      "doubleSided": true,
      "name": "searsia_burchellii",
      "normalTexture": {
        "index": 3
      },
      "pbrMetallicRoughness": {
        "baseColorTexture": {
          "index": 4
        },
        "metallicFactor": 0,
        "metallicRoughnessTexture": {
          "index": 5
        }
      }
    },
    {
      "alphaMode": "BLEND",
      "doubleSided": true,
      "name": "searsia_burchellii_twigs",
      "normalTexture": {
        "index": 6
      },
      "pbrMetallicRoughness": {
        "baseColorTexture": {
          "index": 7
        },
        "metallicFactor": 0,
        "metallicRoughnessTexture": {
          "index": 8
        }
      }
    }
  ],
  "meshes": [
    {
      "name": "Cube.014",
      "primitives": [
        {
          "attributes": {
            "POSITION": 0,
            "NORMAL": 1,
            "TEXCOORD_0": 2
          },
          "indices": 3,
          "material": 0
        },
        {
          "attributes": {
            "POSITION": 4,
            "NORMAL": 5,
            "TEXCOORD_0": 6
          },
          "indices": 7,
          "material": 1
        },
        {
          "attributes": {
            "POSITION": 8,
            "NORMAL": 9,
            "TEXCOORD_0": 10
          },
          "indices": 11,
          "material": 2
        }
      ]
    },
    {
      "name": "Cube.015",
      "primitives": [
        {
          "attributes": {
            "POSITION": 12,
            "NORMAL": 13,
            "TEXCOORD_0": 14
          },
          "indices": 15,
          "material": 0
        },
        {
          "attributes": {
            "POSITION": 16,
            "NORMAL": 17,
            "TEXCOORD_0": 18
          },
          "indices": 19,
          "material": 1
        },
        {
          "attributes": {
            "POSITION": 20,
            "NORMAL": 21,
            "TEXCOORD_0": 22
          },
          "indices": 23,
          "material": 2
        }
      ]
    },
    {
      "name": "Cube.016",
      "primitives": [
        {
          "attributes": {
            "POSITION": 24,
            "NORMAL": 25,
            "TEXCOORD_0": 26
          },
          "indices": 27,
          "material": 0
        },
        {
          "attributes": {
            "POSITION": 28,
            "NORMAL": 29,
            "TEXCOORD_0": 30
          },
          "indices": 31,
          "material": 1
        },
        {
          "attributes": {
            "POSITION": 32,
            "NORMAL": 33,
            "TEXCOORD_0": 34
          },
          "indices": 35,
          "material": 2
        }
      ]
    }
  ],
  "textures": [
    {
      "sampler": 0,
      "source": 0
    },
    {
      "sampler": 0,
      "source": 1
    },
    {
      "sampler": 0,
      "source": 2
    },
    {
      "sampler": 0,
      "source": 0
    },
    {
      "sampler": 0,
      "source": 3
    },
    {
      "sampler": 0,
      "source": 2
    },
    {
      "sampler": 0,
      "source": 0
    },
    {
      "sampler": 0,
      "source": 4
    },
    {
      "sampler": 0,
      "source": 2
    }
  ],
  "images": [
    {
      "mimeType": "image/jpeg",
      "name": "searsia_burchellii_nor_gl",
      "uri": "textures/searsia_burchellii_nor_gl_1k.jpg"
    },
    {
      "mimeType": "image/jpeg",
      "name": "searsia_burchellii_diff-searsia_burchellii_alpha",
      "uri": "textures/searsia_burchellii_diff_1k.jpg"
    },
    {
      "mimeType": "image/jpeg",
      "name": "searsia_burchellii_rough",
      "uri": "textures/searsia_burchellii_arm_1k.jpg"
    },
    {
      "mimeType": "image/jpeg",
      "name": "searsia_burchellii_diff",
      "uri": "textures/searsia_burchellii_diff_1k.jpg"
    },
    {
      "mimeType": "image/jpeg",
      "name": "searsia_burchellii_diff-searsia_burchellii_alpha",
      "uri": "textures/searsia_burchellii_diff_1k.jpg"
    }
  ],
  "accessors": [
    {
      "bufferView": 0,
      "componentType": 5126,
      "count": 247248,
      "max": [
        2.2925784587860107,
        3.1853103637695312,
        2.7523937225341797
      ],
      "min": [
        -1.544677734375,
        0.12488004565238953,
        -2.296138286590576
      ],
      "type": "VEC3"
    },
    {
      "bufferView": 1,
      "componentType": 5126,
      "count": 247248,
      "type": "VEC3"
    },
    {
      "bufferView": 2,
      "componentType": 5126,
      "count": 247248,
      "type": "VEC2"
    },
    {
      "bufferView": 3,
      "componentType": 5125,
      "count": 370872,
      "type": "SCALAR"
    },
    {
      "bufferView": 4,
      "componentType": 5126,
      "count": 193242,
      "max": [
        2.2652039527893066,
        3.20957612991333,
        2.6920647621154785
      ],
      "min": [
        -1.7160481214523315,
        -0.029464565217494965,
        -2.2872703075408936
      ],
      "type": "VEC3"
    },
    {
      "bufferView": 5,
      "componentType": 5126,
      "count": 193242,
      "type": "VEC3"
    },
    {
      "bufferView": 6,
      "componentType": 5126,
      "count": 193242,
      "type": "VEC2"
    },
    {
      "bufferView": 7,
      "componentType": 5125,
      "count": 593664,
      "type": "SCALAR"
    },
    {
      "bufferView": 8,
      "componentType": 5126,
      "count": 43992,
      "max": [
        2.384669303894043,
        3.1873857975006104,
        2.732976198196411
      ],
      "min": [
        -1.7734739780426025,
        0.0011102030985057354,
        -2.280196189880371
      ],
      "type": "VEC3"
    },
    {
      "bufferView": 9,
      "componentType": 5126,
      "count": 43992,
      "type": "VEC3"
    },
    {
      "bufferView": 10,
      "componentType": 5126,
      "count": 43992,
      "type": "VEC2"
    },
    {
      "bufferView": 11,
      "componentType": 5123,
      "count": 120138,
      "type": "SCALAR"
    },
    {
      "bufferView": 12,
      "componentType": 5126,
      "count": 150520,
      "max": [
        1.604352593421936,
        2.5587735176086426,
        1.2416009902954102
      ],
      "min": [
        -1.5628736019134521,
        0.09203975647687912,
        -1.187920093536377
      ],
      "type": "VEC3"
    },
    {
      "bufferView": 13,
      "componentType": 5126,
      "count": 150520,
      "type": "VEC3"
    },
    {
      "bufferView": 14,
      "componentType": 5126,
      "count": 150520,
      "type": "VEC2"
    },
    {
      "bufferView": 15,
      "componentType": 5125,
      "count": 225780,
      "type": "SCALAR"
    },
    {
      "bufferView": 16,
      "componentType": 5126,
      "count": 96794,
      "max": [
        1.5414270162582397,
        2.5020341873168945,
        1.1944351196289062
      ],
      "min": [
        -1.6102334260940552,
        -0.028660189360380173,
        -1.137372612953186
      ],
      "type": "VEC3"
    },
    {
      "bufferView": 17,
      "componentType": 5126,
      "count": 96794,
      "type": "VEC3"
    },
    {
      "bufferView": 18,
      "componentType": 5126,
      "count": 96794,
      "type": "VEC2"
    },
    {
      "bufferView": 19,
      "componentType": 5125,
      "count": 290190,
      "type": "SCALAR"
    },
    {
      "bufferView": 20,
      "componentType": 5126,
      "count": 42064,
      "max": [
        1.6037590503692627,
        2.523421287536621,
        1.4262630939483643
      ],
      "min": [
        -1.9710510969161987,
        0.0028379764407873154,
        -1.1836278438568115
      ],
      "type": "VEC3"
    },
    {
      "bufferView": 21,
      "componentType": 5126,
      "count": 42064,
      "type": "VEC3"
    },
    {
      "bufferView": 22,
      "componentType": 5126,
      "count": 42064,
      "type": "VEC2"
    },
    {
      "bufferView": 23,
      "componentType": 5123,
      "count": 114816,
      "type": "SCALAR"
    },
    {
      "bufferView": 24,
      "componentType": 5126,
      "count": 27452,
      "max": [
        0.6477775573730469,
        1.874085783958435,
        1.049755334854126
      ],
      "min": [
        -0.9327142834663391,
        0.11959625780582428,
        -1.0235482454299927
      ],
      "type": "VEC3"
    },
    {
      "bufferView": 25,
      "componentType": 5126,
      "count": 27452,
      "type": "VEC3"
    },
    {
      "bufferView": 26,
      "componentType": 5126,
      "count": 27452,
      "type": "VEC2"
    },
    {
      "bufferView": 27,
      "componentType": 5123,
      "count": 41178,
      "type": "SCALAR"
    },
    {
      "bufferView": 28,
      "componentType": 5126,
      "count": 23706,
      "max": [
        0.6796889305114746,
        1.8983455896377563,
        1.0208991765975952
      ],
      "min": [
        -0.9661638736724854,
        -0.03740235045552254,
        -1.2233688831329346
      ],
      "type": "VEC3"
    },
    {
      "bufferView": 29,
      "componentType": 5126,
      "count": 23706,
      "type": "VEC3"
    },
    {
      "bufferView": 30,
      "componentType": 5126,
      "count": 23706,
      "type": "VEC2"
    },
    {
      "bufferView": 31,
      "componentType": 5123,
      "count": 74070,
      "type": "SCALAR"
    },
    {
      "bufferView": 32,
      "componentType": 5126,
      "count": 6696,
      "max": [
        0.6832414865493774,
        1.8283729553222656,
        1.0271259546279907
      ],
      "min": [
        -0.9716964960098267,
        0.014271467924118042,
        -1.0649422407150269
      ],
      "type": "VEC3"
    },
    {
      "bufferView": 33,
      "componentType": 5126,
      "count": 6696,
      "type": "VEC3"
    },
    {
      "bufferView": 34,
      "componentType": 5126,
      "count": 6696,
      "type": "VEC2"
    },
    {
      "bufferView": 35,
      "componentType": 5123,
      "count": 18300,
      "type": "SCALAR"
    }
  ],
  "bufferViews": [
    {
      "buffer": 0,
      "byteLength": 2966976,
      "byteOffset": 0,
      "target": 34962
    },
    {
      "buffer": 0,
      "byteLength": 2966976,
      "byteOffset": 2966976,
      "target": 34962
    },
    {
      "buffer": 0,
      "byteLength": 1977984,
      "byteOffset": 5933952,
      "target": 34962
    },
    {
      "buffer": 0,
      "byteLength": 1483488,
      "byteOffset": 7911936,
      "target": 34963
    },
    {
      "buffer": 0,
      "byteLength": 2318904,
      "byteOffset": 9395424,
      "target": 34962
    },
    {
      "buffer": 0,
      "byteLength": 2318904,
      "byteOffset": 11714328,
      "target": 34962
    },
    {
      "buffer": 0,
      "byteLength": 1545936,
      "byteOffset": 14033232,
      "target": 34962
    },
    {
      "buffer": 0,
      "byteLength": 2374656,
      "byteOffset": 15579168,
      "target": 34963
    },
    {
      "buffer": 0,
      "byteLength": 527904,
      "byteOffset": 17953824,
      "target": 34962
    },
    {
      "buffer": 0,
      "byteLength": 527904,
      "byteOffset": 18481728,
      "target": 34962
    },
    {
      "buffer": 0,
      "byteLength": 351936,
      "byteOffset": 19009632,
      "target": 34962
    },
    {
      "buffer": 0,
      "byteLength": 240276,
      "byteOffset": 19361568,
      "target": 34963
    },
    {
      "buffer": 0,
      "byteLength": 1806240,
      "byteOffset": 19601844,
      "target": 34962
    },
    {
      "buffer": 0,
      "byteLength": 1806240,
      "byteOffset": 21408084,
      "target": 34962
    },
    {
      "buffer": 0,
      "byteLength": 1204160,
      "byteOffset": 23214324,
      "target": 34962
    },
    {
      "buffer": 0,
      "byteLength": 903120,
      "byteOffset": 24418484,
      "target": 34963
    },
    {
      "buffer": 0,
      "byteLength": 1161528,
      "byteOffset": 25321604,
      "target": 34962
    },
    {
      "buffer": 0,
      "byteLength": 1161528,
      "byteOffset": 26483132,
      "target": 34962
    },
    {
      "buffer": 0,
      "byteLength": 774352,
      "byteOffset": 27644660,
      "target": 34962
    },
    {
      "buffer": 0,
      "byteLength": 1160760,
      "byteOffset": 28419012,
      "target": 34963
    },
    {
      "buffer": 0,
      "byteLength": 504768,
      "byteOffset": 29579772,
      "target": 34962
    },
    {
      "buffer": 0,
      "byteLength": 504768,
      "byteOffset": 30084540,
      "target": 34962
    },
    {
      "buffer": 0,
      "byteLength": 336512,
      "byteOffset": 30589308,
      "target": 34962
    },
    {
      "buffer": 0,
      "byteLength": 229632,
      "byteOffset": 30925820,
      "target": 34963
    },
    {
      "buffer": 0,
      "byteLength": 329424,
      "byteOffset": 31155452,
      "target": 34962
    },
    {
      "buffer": 0,
      "byteLength": 329424,
      "byteOffset": 31484876,
      "target": 34962
    },
    {
      "buffer": 0,
      "byteLength": 219616,
      "byteOffset": 31814300,
      "target": 34962
    },
    {
      "buffer": 0,
      "byteLength": 82356,
      "byteOffset": 32033916,
      "target": 34963
    },
    {
      "buffer": 0,
      "byteLength": 284472,
      "byteOffset": 32116272,
      "target": 34962
    },
    {
      "buffer": 0,
      "byteLength": 284472,
      "byteOffset": 32400744,
      "target": 34962
    },
    {
      "buffer": 0,
      "byteLength": 189648,
      "byteOffset": 32685216,
      "target": 34962
    },
    {
      "buffer": 0,
      "byteLength": 148140,
      "byteOffset": 32874864,
      "target": 34963
    },
    {
      "buffer": 0,
      "byteLength": 80352,
      "byteOffset": 33023004,
      "target": 34962
    },
    {
      "buffer": 0,
      "byteLength": 80352,
      "byteOffset": 33103356,
      "target": 34962
    },
    {
      "buffer": 0,
      "byteLength": 53568,
      "byteOffset": 33183708,
      "target": 34962
    },
    {
      "buffer": 0,
      "byteLength": 36600,
      "byteOffset": 33237276,
      "target": 34963
    }
  ],
  "samplers": [
    {
      "magFilter": 9729,
      "minFilter": 9987
    }
  ],
  "buffers": [
    {
      "byteLength": 33273876,
      "uri": "searsia_burchellii.bin"
    }
  ]
}